<?xml version="1.0" encoding="UTF-8" standalone="no"?>
<svg
   xmlns:dc="http://purl.org/dc/elements/1.1/"
   xmlns:cc="http://creativecommons.org/ns#"
   xmlns:rdf="http://www.w3.org/1999/02/22-rdf-syntax-ns#"
   xmlns:svg="http://www.w3.org/2000/svg"
   xmlns="http://www.w3.org/2000/svg"
   xmlns:sodipodi="http://sodipodi.sourceforge.net/DTD/sodipodi-0.dtd"
   xmlns:inkscape="http://www.inkscape.org/namespaces/inkscape"
   width="16"
   height="16"
   viewBox="0 0 16 16"
   version="1.1"
   id="svg17"
   sodipodi:docname="dtd.svg"
   inkscape:version="1.0.2-2 (e86c870879, 2021-01-15)">
  <metadata
     id="metadata23">
    <rdf:RDF>
      <cc:Work
         rdf:about="">
        <dc:format>image/svg+xml</dc:format>
        <dc:type
           rdf:resource="http://purl.org/dc/dcmitype/StillImage" />
      </cc:Work>
    </rdf:RDF>
  </metadata>
  <defs
     id="defs21" />
  <sodipodi:namedview
     pagecolor="#ffffff"
     bordercolor="#666666"
     borderopacity="1"
     objecttolerance="10"
     gridtolerance="10"
     guidetolerance="10"
     inkscape:pageopacity="0"
     inkscape:pageshadow="2"
     inkscape:window-width="1920"
     inkscape:window-height="1027"
     id="namedview19"
     showgrid="false"
     inkscape:zoom="53.75"
     inkscape:cx="4.4186047"
     inkscape:cy="9.4883721"
     inkscape:window-x="3832"
     inkscape:window-y="22"
     inkscape:window-maximized="1"
     inkscape:current-layer="g15" />
  <rect
     id="frame"
     width="16"
     height="16"
     fill="none" />
  <g
     fill="none"
     fill-rule="evenodd"
     id="g15">
    <path
       fill="#F26522"
       fill-opacity=".7"
       d="M1 16h15V9H1z"
       id="path3"
       style="fill:#62b543;fill-opacity:0.69803923" />
    <path
       fill="#9AA7B0"
       fill-opacity=".8"
       d="M7 1L3 5h4z"
       id="path5" />
    <path
       fill="#9AA7B0"
       fill-opacity=".8"
       d="M8 1v5H3v2h10V1z"
       id="path7" />
    <path
       fill="#231f20"
       fill-opacity="0.7"
       d="m 3.9860465,11 v 3 h 0.649 c 0.929,0 1.351,-0.507 1.351,-1.485 V 12.5 c 0,-0.978 -0.422,-1.5 -1.351,-1.5 z m -1,-1 h 1.649 c 1.391,0 2.351,1.093 2.351,2.5 0,1.421 -0.96,2.5 -2.351,2.5 h -1.649 z"
       id="path9"
       style="fill:#231f20;fill-opacity:0.698039" />
    <path
       fill="#231f20"
       fill-opacity="0.7"
       d="m 8.9860465,11 h -1.5 v -1 h 3.9999995 v 1 H 9.9860465 v 4 h -1 z"
       id="path13" />
  </g>
</svg>
